
<svg xmlns="http://www.w3.org/2000/svg" viewBox="0 0 240 64" width="240" height="64">
  <defs>
    <linearGradient id="g" x1="0" y1="0" x2="1" y2="1">
      <stop offset="0" stop-color="#9ddcff"/>
      <stop offset="1" stop-color="#b7ffa1"/>
    </linearGradient>
  </defs>
  <rect width="240" height="64" rx="12" fill="#0e1319" stroke="#223" />
  <g fill="none" stroke="url(#g)" stroke-width="2.5" stroke-linecap="round">
    <!-- stylized Celtic key -->
    <path d="M26 32c0-9 7-16 16-16s16 7 16 16-7 16-16 16-16-7-16-16z"/>
    <path d="M42 16v-8M42 56v-8M26 32h-14M74 32h-14"/>
    <path d="M86 22h40M86 42h30M116 42l10-10M146 32h12l8 8M166 40h18M184 40v-16M184 24h16M200 24v16"/>
  </g>
  <text x="88" y="23" font-size="10" fill="#9fb0c3" font-family="Georgia, serif">THE</text>
  <text x="86" y="43" font-size="20" fill="#e6edf3" font-family="Georgia, serif" font-weight="700">CELTIC KEY</text>
</svg>
